<svg xmlns="http://www.w3.org/2000/svg" aria-hidden="true" style="position:absolute;width:0;height:0;overflow:hidden">
<defs>
  <symbol id="icon-account_circle" viewBox="0 0 32 32">
    <path d="M7.432 23.413c1.395-0.967 2.778-1.709 4.151-2.226s2.846-0.775 4.421-0.775c1.575 0 3.055 0.26 4.442 0.781s2.771 1.261 4.156 2.22c0.967-1.205 1.653-2.407 2.056-3.605s0.605-2.467 0.605-3.807c0-3.197-1.077-5.873-3.233-8.029s-4.831-3.233-8.028-3.233c-3.196 0-5.873 1.078-8.029 3.233s-3.234 4.832-3.234 8.029c0 1.34 0.206 2.608 0.618 3.805s1.104 2.399 2.076 3.608zM15.994 17.056c-1.301 0-2.395-0.445-3.28-1.335s-1.328-1.984-1.328-3.282 0.445-2.391 1.334-3.28c0.89-0.888 1.985-1.333 3.287-1.333s2.395 0.446 3.28 1.339c0.885 0.892 1.328 1.988 1.328 3.286s-0.445 2.39-1.334 3.276c-0.889 0.886-1.985 1.328-3.287 1.328zM16.011 29.533c-1.856 0-3.607-0.355-5.252-1.064s-3.084-1.68-4.315-2.911c-1.232-1.231-2.202-2.667-2.912-4.308s-1.064-3.393-1.064-5.259c0-1.859 0.355-3.608 1.066-5.245s1.681-3.071 2.911-4.301c1.23-1.23 2.665-2.201 4.306-2.915s3.394-1.070 5.26-1.070c1.859 0 3.608 0.357 5.245 1.070s3.071 1.685 4.301 2.915c1.23 1.23 2.201 2.664 2.915 4.303s1.070 3.386 1.070 5.242c0 1.856-0.357 3.607-1.070 5.253s-1.685 3.084-2.915 4.314c-1.23 1.23-2.664 2.2-4.303 2.911s-3.386 1.066-5.242 1.066zM16 27.262c1.206 0 2.379-0.173 3.52-0.517s2.277-0.954 3.41-1.827c-1.139-0.795-2.281-1.396-3.427-1.805s-2.314-0.613-3.503-0.613-2.356 0.205-3.499 0.613c-1.143 0.409-2.284 1.011-3.423 1.805 1.133 0.873 2.269 1.482 3.406 1.827s2.309 0.517 3.516 0.517zM16 14.96c0.739 0 1.343-0.233 1.814-0.701s0.705-1.072 0.705-1.814-0.235-1.348-0.705-1.818c-0.47-0.47-1.075-0.705-1.814-0.705s-1.343 0.235-1.814 0.705c-0.47 0.47-0.705 1.076-0.705 1.818s0.235 1.347 0.705 1.814c0.47 0.467 1.075 0.701 1.814 0.701z"/>
  </symbol>

  <symbol id="icon-book_2" viewBox="0 0 32 32">
    <path d="M7.349 21.27c0.316-0.202 0.659-0.356 1.030-0.461s0.768-0.158 1.192-0.158h1.112v-15.976h-1.112c-0.624 0-1.151 0.216-1.579 0.647s-0.643 0.959-0.643 1.583v14.365zM12.898 20.651h11.761v-15.976h-11.761v15.976zM9.571 29.533c-1.228 0-2.275-0.432-3.14-1.297s-1.297-1.911-1.297-3.14v-18.191c0-1.23 0.432-2.279 1.297-3.145s1.911-1.3 3.14-1.3h15.024c0.632 0 1.17 0.222 1.614 0.665s0.665 0.981 0.665 1.614v17.246c0 0.217-0.056 0.414-0.167 0.591s-0.253 0.301-0.427 0.373c-0.406 0.168-0.725 0.442-0.956 0.822s-0.347 0.818-0.347 1.315 0.115 0.934 0.345 1.311c0.23 0.377 0.548 0.648 0.954 0.812 0.192 0.084 0.34 0.229 0.443 0.437s0.155 0.46 0.155 0.756v0.037c0 0.303-0.107 0.56-0.322 0.774s-0.478 0.32-0.789 0.32h-16.191zM9.556 27.318h13.8c-0.187-0.316-0.333-0.665-0.437-1.047s-0.156-0.773-0.156-1.174c0-0.424 0.053-0.821 0.158-1.192s0.262-0.717 0.469-1.039h-13.831c-0.61 0-1.131 0.216-1.562 0.647s-0.647 0.959-0.647 1.583c0 0.619 0.216 1.144 0.647 1.575s0.951 0.647 1.56 0.647z"/>
  </symbol>

  <symbol id="icon-conversion_path" viewBox="0 0 32 32">
    <path d="M25.533 28.183c-0.97 0-1.807-0.288-2.511-0.864s-1.148-1.267-1.331-2.071h-6.925c-1.484 0-2.713-0.487-3.687-1.462s-1.461-2.205-1.461-3.69c0-1.48 0.487-2.707 1.461-3.682s2.203-1.462 3.687-1.462h2.567c0.894 0 1.626-0.286 2.196-0.857s0.856-1.303 0.856-2.197-0.285-1.626-0.856-2.196c-0.571-0.57-1.303-0.855-2.196-0.855h-7.017c-0.211 0.804-0.663 1.495-1.356 2.071s-1.525 0.864-2.494 0.864c-1.114 0-2.056-0.385-2.827-1.156s-1.156-1.713-1.156-2.827c0-1.114 0.385-2.057 1.156-2.827s1.713-1.156 2.827-1.156c0.97 0 1.801 0.288 2.494 0.864s1.145 1.267 1.356 2.071h7.017c1.483 0 2.711 0.487 3.686 1.462s1.462 2.203 1.462 3.686-0.487 2.711-1.462 3.686c-0.975 0.974-2.203 1.462-3.686 1.462h-2.567c-0.895 0-1.628 0.285-2.197 0.855s-0.855 1.301-0.855 2.193c0 0.898 0.285 1.632 0.855 2.201s1.302 0.855 2.197 0.855h6.925c0.205-0.805 0.655-1.495 1.348-2.071s1.525-0.864 2.494-0.864c1.114 0 2.056 0.385 2.827 1.156s1.156 1.713 1.156 2.827c0 1.114-0.385 2.057-1.156 2.827s-1.713 1.156-2.827 1.156zM6.466 9.6c0.511 0 0.939-0.172 1.283-0.517s0.517-0.772 0.517-1.283c0-0.511-0.172-0.939-0.517-1.283s-0.772-0.517-1.283-0.517c-0.511 0-0.939 0.172-1.283 0.517s-0.517 0.772-0.517 1.283c0 0.511 0.172 0.939 0.517 1.283s0.772 0.517 1.283 0.517z"/>
  </symbol>

  <symbol id="icon-today" viewBox="0 0 32 32">
    <path d="M11.808 21.715c-0.907 0-1.672-0.313-2.294-0.939s-0.933-1.393-0.933-2.3c0-0.907 0.313-1.672 0.94-2.294s1.393-0.933 2.3-0.933c0.907 0 1.671 0.313 2.294 0.94s0.933 1.393 0.933 2.3c0 0.907-0.313 1.671-0.939 2.294s-1.393 0.933-2.3 0.933zM6.072 29.533c-0.613 0-1.145-0.225-1.595-0.676s-0.676-0.982-0.676-1.595v-20.523c0-0.616 0.225-1.149 0.676-1.601s0.982-0.678 1.595-0.678h2.095v-0.862c0-0.319 0.111-0.588 0.332-0.808s0.491-0.33 0.808-0.33c0.326 0 0.602 0.11 0.826 0.33s0.336 0.489 0.336 0.808v0.862h11.062v-0.862c0-0.319 0.111-0.588 0.332-0.808s0.491-0.33 0.808-0.33c0.327 0 0.602 0.11 0.826 0.33s0.336 0.489 0.336 0.808v0.862h2.095c0.616 0 1.149 0.226 1.601 0.678s0.678 0.985 0.678 1.601v20.523c0 0.613-0.226 1.145-0.678 1.595s-0.985 0.676-1.601 0.676h-19.857zM6.072 27.262h19.857v-14.262h-19.857v14.262zM6.072 11h19.857v-4.262h-19.857v4.262z"/>
  </symbol>

<symbol id="icon-logo" viewBox="0 0 32 32">
<path fill="#33adc1" style="fill: var(--color1, #33adc1)" d="M31.596 15.798c0 8.725-7.073 15.798-15.798 15.798-0.328 0-0.653-0.010-0.975-0.030-1.352-0.082-2.658-0.335-3.897-0.736-0.471-0.152-0.933-0.327-1.384-0.521-5.614-2.423-9.543-8.008-9.543-14.511 0-8.725 7.073-15.798 15.798-15.798s15.798 7.073 15.798 15.798z"></path>
<path fill="#eae0d3" style="fill: var(--color2, #eae0d3)" d="M14.823 31.566c-1.866-0.113-3.645-0.551-5.28-1.257 6.118-8.248-4.473-16.104-4.473-16.104l5.34-1.318c0-0 11.428 6.971 4.414 18.679z"></path>
<path fill="#d6c8b0" style="fill: var(--color3, #d6c8b0)" d="M10.927 30.831c-0.471-0.152-0.933-0.327-1.384-0.521 6.118-8.248-4.473-16.104-4.473-16.104l1.543-0.381c0.374 0.28 0.898 0.644 1.432 1.144 2.786 2.602 6.827 8.139 2.881 15.862z"></path>
<path fill="#eae0d3" style="fill: var(--color2, #eae0d3)" d="M14.222 8.792c0 3.411-2.765 6.176-6.176 6.176s-6.176-2.765-6.176-6.176c0-0.509 0.061-1.004 0.178-1.477s0.287-0.925 0.505-1.348l-2.552-2.552 4.182 0.559-2.145-2.66 4.905 1.401-0.535-2.714c0 0 4.267 2.36 6.294 4.734 0.154 0.176 0.297 0.361 0.43 0.554 0.687 0.996 1.091 2.203 1.091 3.505z"></path>
<path fill="#2f373b" style="fill: var(--color4, #2f373b)" d="M11.365 7.531c0 0.835-0.677 1.513-1.512 1.513s-1.513-0.677-1.513-1.513c0-0.835 0.677-1.513 1.513-1.513s1.512 0.677 1.512 1.513z"></path>
<path fill="#ff648d" style="fill: var(--color5, #ff648d)" d="M25.542 8.53c-0.621 0.324-1.275 0.251-1.801 0.077-0.614-0.203-1.052-0.542-1.052-0.542s-2.212-2.171-0.51-3.116c0.514-0.285 0.93-0.284 1.26-0.142h0.001c0.764 0.328 1.071 1.402 1.071 1.402s0.616-1.597 1.978-1.113c1.362 0.483 0.398 2.731-0.947 3.435z"></path>
<path fill="#ea2f69" style="fill: var(--color6, #ea2f69)" d="M23.741 8.607c-0.614-0.203-1.052-0.542-1.052-0.542s-2.212-2.171-0.51-3.116c0.514-0.285 0.93-0.284 1.26-0.142-0.753-0.042-0.777 2.733 0.302 3.801z"></path>
<path fill="#fff" style="fill: var(--color7, #fff)" d="M10.934 7.047c0 0.261-0.212 0.473-0.473 0.473s-0.473-0.212-0.473-0.473c0-0.261 0.212-0.472 0.473-0.472s0.473 0.212 0.473 0.472z"></path>
<path fill="#ff648d" style="fill: var(--color5, #ff648d)" d="M23.242 9.26c0 2.304-6.271 9.3-2.175 12.199 1.024 0.725 2.154 0.961 3.274 0.908 1.119 0.053 2.25-0.183 3.274-0.908 4.096-2.899-2.175-9.895-2.175-12.199z"></path>
<path fill="#ea2f69" style="fill: var(--color6, #ea2f69)" d="M24.172 22.372c-1.065 0.023-2.132-0.225-3.105-0.913-4.097-2.899 2.175-9.895 2.175-12.199h0.672c0 2.304-2.437 9.3-0.845 12.199 0.346 0.631 0.724 0.892 1.103 0.913z"></path>
<path fill="#ea2f69" style="fill: var(--color6, #ea2f69)" d="M24.173 22.372c0.056-0.001 0.112-0.003 0.169-0.005-0.056 0.007-0.112 0.009-0.169 0.005z"></path>
<path fill="#ea2f69" style="fill: var(--color6, #ea2f69)" d="M24.51 22.372c-0.056 0.004-0.112 0.002-0.168-0.005 0.056 0.002 0.112 0.004 0.168 0.005z"></path>
<path fill="#ffd62c" style="fill: var(--color8, #ffd62c)" d="M28.464 8.855l-15.63 2.584c0 0-0.546-0.827-0.744-1.924-0.177-0.978-0.077-2.171 0.933-3.181l15.441 2.521z"></path>
<path fill="#ffb92e" style="fill: var(--color9, #ffb92e)" d="M28.464 8.856l-15.63 2.584c0 0-0.546-0.827-0.744-1.924l16.374-0.66z"></path>
<path fill="#d6c8b0" style="fill: var(--color3, #d6c8b0)" d="M8.045 14.969c-3.411 0-6.176-2.765-6.176-6.176 0-0.509 0.061-1.004 0.178-1.477s0.287-0.925 0.505-1.348l-2.552-2.552 4.182 0.559-2.145-2.66 5 2.815c0 0-3.088 1.135-3.088 4.727s4.097 6.113 4.097 6.113z"></path>
</symbol>
<symbol id="icon-stork" viewBox="0 0 150 32">
<path d="M137.614 31.735c-1.967 0-3.733-0.485-5.296-1.456-1.563-0.997-2.803-2.331-3.719-4.002-0.89-1.698-1.334-3.612-1.334-5.741s0.485-4.043 1.455-5.741c0.997-1.698 2.331-3.032 4.002-4.002 1.698-0.997 3.598-1.496 5.7-1.496s3.989 0.499 5.66 1.496c1.671 0.97 2.992 2.304 3.962 4.002 0.997 1.698 1.496 3.612 1.496 5.741h-1.577c0 2.129-0.458 4.043-1.375 5.741-0.889 1.671-2.116 3.005-3.679 4.002-1.563 0.97-3.328 1.456-5.296 1.456zM138.422 28.097c1.375 0 2.601-0.323 3.679-0.97 1.078-0.674 1.927-1.577 2.547-2.709 0.62-1.159 0.93-2.453 0.93-3.881 0-1.455-0.31-2.749-0.93-3.881-0.62-1.159-1.469-2.062-2.547-2.709-1.078-0.674-2.304-1.011-3.679-1.011-1.347 0-2.574 0.337-3.679 1.011-1.078 0.647-1.941 1.55-2.588 2.709-0.62 1.132-0.93 2.426-0.93 3.881 0 1.428 0.31 2.722 0.93 3.881 0.647 1.132 1.509 2.035 2.588 2.709 1.105 0.647 2.331 0.97 3.679 0.97zM147.478 31.614c-0.593 0-1.091-0.189-1.496-0.566-0.377-0.404-0.566-0.903-0.566-1.496v-6.185l0.768-4.285 3.355 1.455v9.015c0 0.593-0.202 1.092-0.606 1.496-0.377 0.377-0.863 0.566-1.456 0.566z"></path>
<path d="M124.308 31.087c-0.35 0.323-0.849 0.485-1.496 0.485-0.62-0.027-1.105-0.215-1.456-0.566l-9.824-10.552 9.258-10.349c0.35-0.377 0.835-0.593 1.455-0.647 0.647-0.054 1.146 0.081 1.496 0.404 0.404 0.377 0.633 0.809 0.687 1.294 0.054 0.458-0.094 0.876-0.445 1.253l-7.317 7.843 7.762 8.328c0.35 0.35 0.526 0.768 0.526 1.253 0 0.458-0.216 0.876-0.647 1.253zM108.299 31.613c-0.593 0-1.064-0.189-1.415-0.566-0.35-0.404-0.526-0.903-0.526-1.496v-18.031c0-0.62 0.175-1.119 0.526-1.496s0.822-0.566 1.415-0.566c0.62 0 1.119 0.189 1.496 0.566 0.404 0.377 0.607 0.876 0.607 1.496v6.751h5.175v3.8h-5.175v7.479c0 0.593-0.202 1.091-0.607 1.496-0.377 0.377-0.876 0.566-1.496 0.566z"></path>
<path d="M91.233 31.735c-2.237 0-4.231-0.472-5.983-1.415-1.725-0.97-3.086-2.291-4.083-3.962-0.97-1.698-1.456-3.638-1.456-5.821 0-2.21 0.458-4.151 1.375-5.822 0.943-1.698 2.237-3.019 3.881-3.962 1.644-0.97 3.531-1.455 5.66-1.455 2.102 0 3.908 0.472 5.417 1.415 1.509 0.916 2.655 2.197 3.436 3.841 0.809 1.617 1.213 3.49 1.213 5.619 0 0.512-0.175 0.943-0.526 1.294-0.35 0.323-0.795 0.485-1.334 0.485h-16.292v-3.234h16.171l-1.658 1.132c-0.027-1.348-0.297-2.547-0.809-3.598-0.512-1.078-1.24-1.927-2.183-2.547s-2.089-0.93-3.436-0.93c-1.536 0-2.857 0.337-3.962 1.011-1.078 0.674-1.9 1.604-2.466 2.789-0.566 1.159-0.849 2.48-0.849 3.962s0.337 2.803 1.011 3.962c0.674 1.159 1.604 2.075 2.79 2.749s2.547 1.011 4.083 1.011c0.835 0 1.684-0.148 2.547-0.445 0.889-0.323 1.603-0.687 2.143-1.091 0.404-0.297 0.835-0.445 1.294-0.445 0.485-0.027 0.903 0.108 1.253 0.404 0.458 0.404 0.701 0.849 0.728 1.334s-0.189 0.903-0.647 1.253c-0.916 0.728-2.062 1.321-3.437 1.779-1.347 0.458-2.641 0.687-3.881 0.687z"></path>
<path d="M65.001 9.5c0.404 0 0.768 0.108 1.092 0.323s0.579 0.553 0.768 1.011l8.328 18.071c0.242 0.539 0.27 1.024 0.081 1.455-0.189 0.404-0.512 0.714-0.97 0.93-0.593 0.269-1.105 0.337-1.536 0.202s-0.795-0.472-1.092-1.011l-7.6-17.263h2.062l-7.843 17.263c-0.243 0.512-0.607 0.849-1.092 1.011-0.458 0.135-0.97 0.067-1.536-0.202-0.512-0.243-0.876-0.566-1.091-0.97-0.189-0.404-0.148-0.876 0.121-1.415l8.368-18.071c0.404-0.889 1.051-1.334 1.94-1.334z"></path>
<path d="M41.589 31.735c-2.237 0-4.231-0.472-5.983-1.415-1.725-0.97-3.086-2.291-4.083-3.962-0.97-1.698-1.456-3.638-1.456-5.821 0-2.21 0.458-4.151 1.375-5.822 0.943-1.698 2.237-3.019 3.881-3.962 1.644-0.97 3.531-1.455 5.66-1.455 2.102 0 3.908 0.472 5.417 1.415 1.509 0.916 2.655 2.197 3.436 3.841 0.809 1.617 1.213 3.49 1.213 5.619 0 0.512-0.175 0.943-0.526 1.294-0.35 0.323-0.795 0.485-1.334 0.485h-16.292v-3.234h16.171l-1.658 1.132c-0.027-1.348-0.296-2.547-0.809-3.598-0.512-1.078-1.24-1.927-2.183-2.547s-2.089-0.93-3.437-0.93c-1.536 0-2.857 0.337-3.962 1.011-1.078 0.674-1.9 1.604-2.466 2.789-0.566 1.159-0.849 2.48-0.849 3.962s0.337 2.803 1.011 3.962c0.674 1.159 1.603 2.075 2.789 2.749s2.547 1.011 4.083 1.011c0.835 0 1.684-0.148 2.547-0.445 0.889-0.323 1.604-0.687 2.143-1.091 0.404-0.297 0.836-0.445 1.294-0.445 0.485-0.027 0.903 0.108 1.253 0.404 0.458 0.404 0.701 0.849 0.728 1.334s-0.189 0.903-0.647 1.253c-0.916 0.728-2.062 1.321-3.436 1.779-1.348 0.458-2.641 0.687-3.881 0.687z"></path>
<path d="M2.075 31.574c-0.755 0-1.334-0.323-1.738-0.97s-0.445-1.334-0.121-2.062l11.36-27.127c0.404-0.943 1.065-1.415 1.981-1.415 0.97 0 1.631 0.472 1.981 1.415l11.401 27.208c0.296 0.755 0.256 1.442-0.121 2.062-0.35 0.593-0.916 0.889-1.698 0.889-0.404 0-0.795-0.108-1.172-0.323-0.35-0.242-0.606-0.566-0.768-0.97l-10.107-24.904h1.294l-10.349 24.904c-0.189 0.431-0.472 0.754-0.849 0.97-0.35 0.216-0.714 0.323-1.092 0.323z"></path>
</symbol>
</defs>
</svg>
